<?xml version="1.0" encoding="utf-8"?>
<svg version="1.1" xmlns="http://www.w3.org/2000/svg" xmlns:xlink="http://www.w3.org/1999/xlink" x="0px" y="0px"
	 viewBox="0 0 515 447.3" style="enable-background:new 0 0 515 447.3;" xml:space="preserve">
<style type="text/css">
	.tour-logo-svg-styling-scope-0{opacity:0.6;fill:#FCE19F;}
	.tour-logo-svg-styling-scope-1{fill:#FED153;}
	.tour-logo-svg-styling-scope-2{fill:#FFFFFF;stroke:#CCCCCC;stroke-width:2;stroke-miterlimit:10;}
	.tour-logo-svg-styling-scope-3{fill:#FFFFFF;stroke:url(#SVGID_1_);stroke-miterlimit:10;}
	.tour-logo-svg-styling-scope-4{fill:#F3F3F3;}
	.tour-logo-svg-styling-scope-5{fill:#FCC639;}
	.tour-logo-svg-styling-scope-6{fill:#E39D0E;}
	.tour-logo-svg-styling-scope-7{fill:#D18618;}
	.tour-logo-svg-styling-scope-8{fill:#F5B927;}
	.tour-logo-svg-styling-scope-9{font-family:'PTMono-Regular';}
	.tour-logo-svg-styling-scope-10{font-size:40.3319px;}
</style>
<g >
	<circle class="tour-logo-svg-styling-scope-0" cx="257.3" cy="400.4" r="45.7"/>
	<circle class="tour-logo-svg-styling-scope-1" cx="257.3" cy="400.4" r="19.5"/>
	<path class="tour-logo-svg-styling-scope-2" d="M184.4,4.1c138.3,0,312.5,0,312.5,0c8.6,0,15.6,7.6,15.6,16.9v315.4c0,9.3-7,16.9-15.6,16.9H294.5
		c0,0-0.3,0-0.7,0c-0.3,0.7-0.6,1.4-0.6,1.4l-36,47.6l-36-47.6c0,0-0.3-0.7-0.6-1.4c-0.3,0-0.7,0-0.7,0H17.7
		c-8.6,0-15.6-7.6-15.6-16.9V21.1c0-9.3,7-16.9,15.6-16.9C17.7,4.1,93.3,4.1,184.4,4.1z"/>
	<linearGradient id="SVGID_1_" gradientUnits="userSpaceOnUse" x1="267.6676" y1="344.6096" x2="267.6676" y2="344.6096">
		<stop  offset="0" style="stop-color:#FFFFFF"/>
		<stop  offset="1" style="stop-color:#000000"/>
	</linearGradient>
	<path class="tour-logo-svg-styling-scope-3" d="M267.7,344.6"/>
	<rect x="37.4" y="43.6" class="tour-logo-svg-styling-scope-4" width="382.2" height="42.9"/>
	<rect x="37.4" y="117.6" class="tour-logo-svg-styling-scope-4" width="429.1" height="42.9"/>
	<rect x="37.4" y="191.5" class="tour-logo-svg-styling-scope-4" width="441.1" height="42.9"/>
	<rect x="37.4" y="265.4" class="tour-logo-svg-styling-scope-4" width="370" height="42.9"/>
	<g>
		<g>
			<path class="tour-logo-svg-styling-scope-5" d="M239,182.6l0.5-0.1c0,0,0.3,0.4,0.3,0.4c0.1,2.3,0.2,4.7,0.3,7c1.5,3.9-0.2,9.3,5.2,11.5
				c-0.5,4.3-1,8.6-1.5,13c-7.2,21.5-32.4,31-36.3,54.7c-0.2,1.3-2.6,2.4-4.2,3.2c-22,11.8-42.3,4.4-62.4-5.6
				c-1.3-1.2-2.5-2.4-3.8-3.6c-4.2-8.5-7.2-17.9-16.6-22.6c-0.1-0.6-0.1-1.2-0.1-1.8c-5.6-15-11.1-29.9-16.7-44.9
				c-0.5-1.3-1-2.6-1.5-3.9c11,4.2,12.5,15.5,15.5,24.1c10.3,29.8,26,52.7,60.4,55.9c8.1,0.7,14.6-1.4,19.9-8.7
				c4.1-5.6,2.1-10.5,0-14.7c-3.2-6.4-9.6-2.4-14.8-2.8c-11.4-0.9-22.4-4.1-31.1-12.5c17.9,4.5,36.1,3,54.2,3.4
				c8.8,0.2,8.8-4.6,5.5-10.8c0-1.2,0-2.5,0-3.7c4.4-11-5.4-16.5-9.3-24.2c8.9,2,13.6,7.4,15.2,16.5c0.9,5.5,1.9,13,9.5,12.9
				c7.6-0.2,7.4-7.8,9-13.3c3.3-11.3,2.6-21.9-5.6-31c1.9-0.1,3.9-0.1,5.8-0.2c0,0-0.2,0-0.2,0C237.1,181.2,238.1,181.9,239,182.6z"
				/>
			<path class="tour-logo-svg-styling-scope-1" d="M186.2,55.6c1.1,0.5,2.2,1,3.4,1.5c1.2,2,2.4,4.1,3.7,6.1c1.3,8.7,2.6,17.3,3.9,26
				c5.7,27.8,20.7,54,14.6,83.9c-8.3-1.2-12.1-6.6-13.1-14.4c-2.1-16.1-7.1-31-14.8-45.4c-5.9-10.9-8.8-23.4-13.1-35.2
				c-1.4-4.3-2.8-8.7-4.1-13c0.1-0.7,0.2-1.4,0.3-2.1c0,0-0.1,0.1-0.1,0.1c0.3-0.1,0.8-0.3,0.8-0.4c0-0.5-0.2-0.9-0.4-1.4
				c0.5-0.7,0.9-1.3,1.4-2c0.7-0.6,1.4-1.3,2.1-1.9c0,0-0.2-0.1-0.2-0.1c2-0.6,3.9-1.2,5.9-1.8C179.7,55.5,182.9,55.5,186.2,55.6z"
				/>
			<path class="tour-logo-svg-styling-scope-6" d="M120.4,238.6c0,0.6,0.1,1.2,0.1,1.8c6.2,7.1,4.2,20.1,16.6,22.6c1.3,1.2,2.5,2.4,3.8,3.6
				c-0.4,3.7,1.9,5.4,4.8,7.1c29.9,17.7,64.3,10.1,80.6-20.6c6.5-12.3,20.6-22,17.5-38.8c0.5-4.3,1-8.6,1.5-13
				c-0.3-4.5,0-9.2-5.2-11.5c-0.1-2.3-0.2-4.7-0.3-7c6.1,3,8.2,8.6,9.3,14.8c3.6,33.4-6.9,60.9-35.7,79.3
				c-25.2,16-51.1,11.8-76.4-0.9c0,0,0.2,0.1,0.2,0.1c-0.7-0.8-1.4-1.5-2-2.3c-1.9-1.6-3.7-3.2-5.6-4.7c0,0-0.1-0.2-0.1-0.2
				c-3.1-4.7-6.1-9.4-9.2-14.2c-0.3-0.9-0.6-1.7-0.9-2.6c-2.2-5.8-4.4-11.6-6.7-17.3C119.2,228.3,115.5,242.2,120.4,238.6z"/>
			<path class="tour-logo-svg-styling-scope-6" d="M170.8,78.1c4.2,11.8,7.2,24.3,13.1,35.2c7.7,14.4,12.7,29.3,14.8,45.4c1,7.7,4.8,13.2,13.1,14.4
				c8.3,0.8,19.7,5.4,11.7-11.4c-5.1-10.7-10.2-21.9-9-34.5c7.3,17.8,14.6,35.6,21.9,53.4c-1.9,0.1-3.9,0.1-5.8,0.2
				c-18-4.6-36-9.5-54,0.1c-1.3,0-2.6-0.1-3.9-0.1c0-0.7-0.1-1.5-0.1-2.2c4.5-8.1,19.6-1.4,20.5-14.5c-2.5-6.9-4.9-13.8-7.4-20.7
				c7.9-3,0.1-6.9,0.3-10.3c0.1-1.3,0.2-6.9-4.2-2.5c-4.8-17.5-9.7-35.1-14.5-52.6C168.5,78,169.6,78,170.8,78.1z"/>
			<path class="tour-logo-svg-styling-scope-7" d="M137,276.1c25.3,12.7,51.2,16.9,76.4,0.9c28.9-18.4,39.3-45.9,35.7-79.3c10.8,26.8-2.1,68-25.8,82.5
				C193.7,298.3,154.8,296.4,137,276.1z"/>
			<path class="tour-logo-svg-styling-scope-5" d="M214.5,127.1c-1.3,12.6,3.9,23.7,9,34.5c8,16.8-3.3,12.2-11.7,11.4c6.1-29.9-8.9-56.1-14.6-83.9
				c6,2.4,4.1,9.1,7.2,13.1c0.1,2.9,0.4,5.6,4,5.9c0.4,0.2,0.5,0.6,0.2,1c-3,7.7,2.1,12.7,5.8,18.2L214.5,127.1z"/>
			<path class="tour-logo-svg-styling-scope-5" d="M150.9,148.8c0,0,0.4,0.2,0.4,0.2c0.2,1.2,0.5,2.5,0.7,3.7c2,6.1,3.7,12.3,6.2,18.2
				c3.1,7.4-0.1,11.9-6.8,13.1c-6,1.1-14.7,11.3-17.8-3.5c7.5,1.8,17,7.2,19.8-4.4c2-8.1-2.3-18.6-11.6-19c-12.7-0.5-6,11-7.2,17.6
				c-0.1,0.8-0.9,1.5-1.4,2.2c-0.6,0-1.3,0-1.9,0c-1.2-4.4-2.3-8.7-3.5-13.1c2.5-2.4,0.8-3.3-1.5-3.9c-0.2-1.9-0.4-3.7-0.6-5.6
				c0,0-0.1,0.1-0.1,0.1c0.8,0.1,1.6,0.1,2.3,0.2C134.9,149.7,142.6,148.1,150.9,148.8z"/>
			<path class="tour-logo-svg-styling-scope-8" d="M73.6,145.2c-6.1-10.6-5.8-20.7,6.5-25.5c12.3-4.8,18.8,4.1,23.2,14.3c-0.5,1.9-1,3.7-1.5,5.6
				c-0.6,0-1.2,0-1.9,0c-1.2-2.1-2.1-4.4-3.6-6.3c-3.5-4.5-4.7-13.8-12.5-11.1c-8.6,3-1.6,10.1-0.7,15.1c1.1,5.9,3.6,11.5,5.6,17.3
				c0,1.3-0.1,2.6-0.1,3.9c-1.8-2.5-3.2-6.4-5.7-7.3C79.2,149.8,81.8,138.8,73.6,145.2z"/>
			<path class="tour-logo-svg-styling-scope-8" d="M193.1,164c-1,13.1-16,6.4-20.5,14.5c-2.4-1.3-4.8-2.7-7.2-4c-0.3-0.6-0.6-1-1.2-1.3
				c-0.9-1.8-1.7-3.6-2.6-5.4l-0.1-0.1c-0.5-5.1-0.1-10.5-5.4-13.7c0-0.3,0-0.6,0-1c0-0.7,0-1.5,0-2.2c-0.1-3.8-0.1-7.6-0.2-11.4
				c6.9-9.4,15.3-11.7,25.5-5.4c0.1,1.4,0.3,2.7,0.4,4.1c-19.6-4.7-23.4,3.9-18.6,21.2C169.9,183.4,182.3,167.9,193.1,164z"/>
			<path class="tour-logo-svg-styling-scope-6" d="M73.6,145.2c8.2-6.4,5.6,4.6,9.2,6c2.5,1,3.8,4.8,5.7,7.3c4.5,4-0.9,12.9,7.3,15.1c0,0.5,0.1,1,0.2,1.5
				c1.2,1.4,2.3,2.8,3.5,4.2c0.1,1.1,0.2,2.2,0.3,3.3c0.7,1.9,1.5,3.7,2.2,5.6c0,0.6,0.1,1.1,0.2,1.7c0.5,1.3,1,2.6,1.5,3.9
				c-0.7,1.3-1.3,2.6-2,3.9C92.3,180.2,83,162.7,73.6,145.2z"/>
			<path class="tour-logo-svg-styling-scope-8" d="M101.7,197.7c0.7-1.3,1.3-2.6,2-3.9c5.6,15,11.1,29.9,16.7,44.9c-4.9,3.5-1.2-10.4-7.7-3.8
				C109.1,222.5,105.4,210.1,101.7,197.7z"/>
			<path class="tour-logo-svg-styling-scope-8" d="M204.4,102.2c-3.1-4-1.2-10.7-7.2-13.1c-1.3-8.7-2.6-17.3-3.9-26c0.1-0.8,0.3-1.6,0.4-2.4
				c4.6,13.9,9.2,27.7,13.8,41.6C206.4,102.3,205.4,102.3,204.4,102.2z"/>
			<path class="tour-logo-svg-styling-scope-6" d="M101.8,139.6c0.5-1.9,1-3.7,1.5-5.6c6.3,10.7,12.5,21.5,18.8,32.2c0.1,1.7,0.1,3.5,0.2,5.2
				C110.2,164.2,109.1,149.9,101.8,139.6z"/>
			<path class="tour-logo-svg-styling-scope-7" d="M122.3,171.5c-0.1-1.7-0.1-3.5-0.2-5.2c1.3-4,2.6-7.9,3.8-11.9c0.2,1.9,0.4,3.7,0.6,5.6
				c0.5,1.3,1,2.6,1.5,3.9c1.2,4.4,2.3,8.7,3.5,13.1c-1.3,1.3-2.6,2.6-3.8,3.8c-1.1-0.8-2.2-1.5-3.3-2.3c0-0.5-0.1-1-0.2-1.5
				C123.5,175.2,122.9,173.4,122.3,171.5z"/>
			<path class="tour-logo-svg-styling-scope-8" d="M150.9,148.8c-8.3-0.7-15.9,0.9-22.8,5.9c-0.5-0.6-1.1-1.2-1.6-1.8C133.6,145.3,141.3,141.6,150.9,148.8z"/>
			<path class="tour-logo-svg-styling-scope-7" d="M181.8,138c-0.1-1.4-0.3-2.7-0.4-4.1c0.2-1.1,0.3-2.2,0.5-3.4c4.4-4.4,4.3,1.1,4.2,2.5
				c-0.3,3.4,7.6,7.3-0.3,10.3c-0.3-0.4-0.5-0.9-0.6-1.4C184,140.6,182.9,139.3,181.8,138C181.9,138,181.8,138,181.8,138z"/>
			<path class="tour-logo-svg-styling-scope-6" d="M214.5,127.3c-3.8-5.5-8.9-10.5-5.8-18.2C210.6,115.2,212.5,121.3,214.5,127.3z"/>
			<path class="tour-logo-svg-styling-scope-8" d="M170.8,78.1c-1.2-0.1-2.3-0.1-3.5-0.2c-0.4-4.3-0.8-8.6-1.3-12.9c0,0,0.6,0.1,0.6,0.1
				C168,69.4,169.4,73.8,170.8,78.1z"/>
			<path class="tour-logo-svg-styling-scope-6" d="M155.8,139.3c0.1,3.8,0.1,7.6,0.2,11.4c-1.2-1.3-2.4-2.5-3.6-3.8C153.5,144.4,154.7,141.9,155.8,139.3z"/>
			<path class="tour-logo-svg-styling-scope-6" d="M204.4,102.2c1,0,2.1,0.1,3.1,0.1c0.3,2,0.6,3.9,1,5.9C204.7,107.8,204.4,105.1,204.4,102.2z"/>
			<path class="tour-logo-svg-styling-scope-5" d="M176.4,55.5c-2,0.6-3.9,1.2-5.9,1.8c2-1,3.9-2,5.9-3C176.5,54.7,176.4,55.1,176.4,55.5z"/>
			<path class="tour-logo-svg-styling-scope-8" d="M176.4,55.5c0-0.4,0-0.8,0-1.2c3.2,0.4,6.5,0.8,9.7,1.2C182.9,55.5,179.7,55.5,176.4,55.5z"/>
			<path class="tour-logo-svg-styling-scope-6" d="M193.6,60.7c-0.1,0.8-0.3,1.6-0.4,2.4c-1.2-2-2.4-4.1-3.7-6.1C190.9,58.3,192.3,59.5,193.6,60.7z"/>
			<path class="tour-logo-svg-styling-scope-7" d="M152.4,147c1.2,1.3,2.4,2.5,3.6,3.8c0,0.7,0,1.5,0,2.2c-1.4-0.1-2.7-0.1-4.1-0.2c-0.2-1.2-0.4-2.5-0.7-3.7
				C151.7,148.3,152,147.7,152.4,147z"/>
			<path class="tour-logo-svg-styling-scope-1" d="M119.4,252.2c0.3,0.9,0.6,1.7,0.9,2.6C120,253.9,119.7,253.1,119.4,252.2z"/>
			<polygon class="tour-logo-svg-styling-scope-8" points="129.5,268.9 129.6,269.1 129.2,269.1 			"/>
			<path class="tour-logo-svg-styling-scope-7" d="M135.1,273.9c0.7,0.8,1.4,1.5,2,2.3C136.5,275.4,135.8,274.6,135.1,273.9z"/>
			<path class="tour-logo-svg-styling-scope-5" d="M170.7,57.4c-0.7,0.6-1.4,1.3-2.1,1.9C169.4,58.6,170.1,58,170.7,57.4z"/>
			<path class="tour-logo-svg-styling-scope-5" d="M167.3,61.3c0.1,0.5,0.3,0.9,0.4,1.4c0,0.1-0.5,0.2-0.8,0.4C166.9,62.4,167,61.9,167.3,61.3z"/>
			<path class="tour-logo-svg-styling-scope-6" d="M239,182.6c-0.9-0.7-1.9-1.3-2.8-2C237.1,181.2,238.1,181.9,239,182.6z"/>
			<path class="tour-logo-svg-styling-scope-5" d="M166.6,65.1c0,0-0.6-0.1-0.6-0.1c0.3-0.7,0.6-1.3,1-2C166.9,63.7,166.8,64.4,166.6,65.1z"/>
			<path class="tour-logo-svg-styling-scope-7" d="M126.5,152.8c0.5,0.6,1.1,1.2,1.6,1.8c-0.8-0.1-1.6-0.1-2.3-0.2C125.8,153.8,126.1,153.3,126.5,152.8z"/>
			<path class="tour-logo-svg-styling-scope-1" d="M124.1,177.1c0.1,0.5,0.2,1,0.2,1.5c-0.2,2.8-0.2,5.4,3.5,6c0.8,2.9,1.6,5.9,2.4,8.8
				c-0.5,17.2,7.8,29.2,22,37.8l0,0c8.6,8.4,19.7,11.6,31.1,12.5c5.3,0.4,11.6-3.6,14.8,2.8c2.1,4.2,4.1,9.2,0,14.7
				c-5.3,7.2-11.8,9.4-19.9,8.7c-34.4-3.2-50.1-26.1-60.4-55.9c-3-8.6-4.5-19.9-15.5-24.1c-0.1-0.6-0.2-1.1-0.2-1.7
				c2.5-3.2,1.6-5-2.2-5.6c-0.1-1.1-0.2-2.2-0.3-3.3c-1.1-1.4-2.3-2.8-3.5-4.2c-0.1-0.5-0.2-1-0.2-1.5c-0.7-7-1.5-13.9-7.2-19
				c-1.9-5.7-4.5-11.4-5.6-17.3c-0.9-5-7.8-12.1,0.7-15.1c7.8-2.8,9,6.5,12.5,11.1c1.5,1.9,2.4,4.2,3.6,6.3
				C105.6,153.6,105.3,171.5,124.1,177.1z"/>
			<path class="tour-logo-svg-styling-scope-1" d="M176.5,180.8c18-9.6,36-4.7,54-0.1c8.3,9.2,8.9,19.7,5.6,31c-1.6,5.5-1.4,13.1-9,13.3
				c-7.6,0.2-8.5-7.3-9.5-12.9c-1.5-9.1-6.3-14.5-15.2-16.5c-10-9.8-19.9-3.1-29.8,0.1c-7.8,2.8-15.3,2.1-22.4-2
				c1.3-7.7,8.1-5.9,12.9-7.6C168.2,185.8,173.2,185.3,176.5,180.8z"/>
			<path class="tour-logo-svg-styling-scope-8" d="M243.8,214.3c3,16.8-11,26.5-17.5,38.8c-16.3,30.7-50.6,38.3-80.6,20.6c-2.9-1.7-5.2-3.4-4.8-7.1
				c20.1,10.1,40.4,17.4,62.4,5.6c1.6-0.8,4-1.9,4.2-3.2C211.3,245.3,236.6,235.8,243.8,214.3z"/>
			<path class="tour-logo-svg-styling-scope-8" d="M172.7,195.8c9.9-3.2,19.8-9.9,29.8-0.1c3.9,7.8,13.7,13.3,9.3,24.2c-1.2-0.1-2.3-0.1-3.5-0.2
				c-3.6-13-10.3-21-25.3-16.2c-7.7,2.5-15.1,9.9-23.6,1.6C163.9,202,168.3,198.9,172.7,195.8z"/>
			<path class="tour-logo-svg-styling-scope-6" d="M208.4,219.7c1.2,0.1,2.3,0.1,3.5,0.2c0,1.2,0,2.5,0,3.7c-21.1,7.9-42.3,9.4-63.3-0.2c0-0.6,0-1.1-0.1-1.7
				c-1.2-3.8-2.3-7.5-3.5-11.3C164.3,225.8,185.6,227.9,208.4,219.7z"/>
			<path class="tour-logo-svg-styling-scope-8" d="M148.5,223.5c21.1,9.6,42.2,8,63.3,0.2c3.3,6.2,3.3,11-5.5,10.8c-18.1-0.4-36.3,1.2-54.2-3.4c0,0,0,0,0,0
				C150.9,228.6,149.7,226,148.5,223.5z"/>
			<path class="tour-logo-svg-styling-scope-8" d="M137.1,263c-12.4-2.5-10.4-15.5-16.6-22.6C129.9,245.1,132.9,254.5,137.1,263z"/>
			<path class="tour-logo-svg-styling-scope-8" d="M240.1,189.9c5.2,2.3,4.9,7,5.2,11.5C239.9,199.2,241.6,193.8,240.1,189.9z"/>
			<path class="tour-logo-svg-styling-scope-1" d="M185.1,141.9c0.1,0.5,0.3,0.9,0.6,1.4c2.5,6.9,4.9,13.8,7.4,20.7c-10.8,3.9-23.2,19.4-29.9-4.8
				c-4.8-17.3-1-25.9,18.6-21.2c0,0,0.1,0,0.1,0C182.9,139.3,184,140.6,185.1,141.9z"/>
			<path class="tour-logo-svg-styling-scope-8" d="M176.5,180.8c-3.3,4.5-8.3,5-13.2,5.3c0.7-1.6,1.5-3.2,2.2-4.8c2.4-0.2,4.8-0.4,7.2-0.6
				C173.9,180.8,175.2,180.8,176.5,180.8z"/>
			<path class="tour-logo-svg-styling-scope-7" d="M172.6,180.7c-2.4,0.2-4.8,0.4-7.2,0.6c0-2.3-0.1-4.6-0.1-6.9c2.4,1.3,4.8,2.7,7.2,4
				C172.6,179.2,172.6,180,172.6,180.7z"/>
			<path class="tour-logo-svg-styling-scope-6" d="M165.3,174.5c0,2.3,0.1,4.6,0.1,6.9c-0.7,1.6-1.5,3.2-2.2,4.8c-4.8,1.7-11.7-0.1-12.9,7.6c-1,0.7-2,1.3-3,2
				c-2.3,1.9-4.6,3.8-6.9,5.7c-2.3-2.6-4.6-5.1-6.9-7.7c-1.1-0.2-2.2-0.3-3.4-0.5c-0.8-2.9-1.6-5.9-2.4-8.8c0-1.2-0.1-2.5-0.1-3.7
				c1.3-1.3,2.6-2.6,3.8-3.8c0.6,0,1.3,0,1.9,0c0.1,1.2,0.2,2.4,0.3,3.6c3.1,14.8,11.8,4.6,17.8,3.5c6.6-1.2,9.8-5.7,6.8-13.1
				c-2.5-5.9-4.2-12.1-6.2-18.2c1.4,0.1,2.7,0.1,4.1,0.2c0,0.3,0,0.6,0,1c0,5.3,0.2,10.5,5.4,13.7c0,0,0.1,0.1,0.1,0.1
				c0.9,1.8,1.7,3.6,2.6,5.4C164.7,173.5,165.1,173.9,165.3,174.5z"/>
			<path class="tour-logo-svg-styling-scope-1" d="M133.7,180.6c-0.1-1.2-0.2-2.4-0.3-3.6c0.5-0.7,1.3-1.4,1.4-2.2c1.1-6.6-5.6-18,7.2-17.6
				c9.2,0.3,13.5,10.9,11.6,19C150.6,187.8,141.1,182.5,133.7,180.6z"/>
			<path class="tour-logo-svg-styling-scope-8" d="M127.9,163.9c-0.5-1.3-1-2.6-1.5-3.9C128.7,160.7,130.4,161.5,127.9,163.9z"/>
			<path class="tour-logo-svg-styling-scope-5" d="M124.1,177.1c-18.8-5.6-18.4-23.5-24.2-37.5c0.6,0,1.2,0,1.9,0c7.4,10.3,8.5,24.6,20.5,31.8
				C122.9,173.4,123.5,175.2,124.1,177.1z"/>
			<path class="tour-logo-svg-styling-scope-5" d="M88.6,154.6c5.7,5.1,6.5,12,7.2,19c-8.2-2.3-2.8-11.1-7.3-15.1C88.6,157.2,88.6,155.9,88.6,154.6z"/>
			<path class="tour-logo-svg-styling-scope-7" d="M161.5,167.6c-5.2-3.2-5.4-8.4-5.4-13.7C161.4,157,161,162.5,161.5,167.6z"/>
			<path class="tour-logo-svg-styling-scope-7" d="M164.2,173.1c-0.9-1.8-1.7-3.6-2.6-5.4C162.4,169.5,163.3,171.3,164.2,173.1z"/>
			<path class="tour-logo-svg-styling-scope-5" d="M99.8,182.6c3.9,0.6,4.7,2.4,2.2,5.6C101.3,186.3,100.5,184.5,99.8,182.6z"/>
			<path class="tour-logo-svg-styling-scope-5" d="M96,175.2c1.2,1.4,2.3,2.8,3.5,4.2C98.3,178,97.1,176.6,96,175.2z"/>
			<path class="tour-logo-svg-styling-scope-5" d="M127.6,180.8c0,1.2,0.1,2.5,0.1,3.7c-3.7-0.5-3.7-3.2-3.5-6C125.4,179.3,126.5,180.1,127.6,180.8z"/>
			<path class="tour-logo-svg-styling-scope-8" d="M185.1,141.9c-1.1-1.3-2.1-2.7-3.2-4C182.9,139.3,184,140.6,185.1,141.9z"/>
			<path class="tour-logo-svg-styling-scope-5" d="M130.1,193.3c1.1,0.2,2.2,0.3,3.4,0.5c1.6,11.2,4.2,21.7,14.9,28c0,0.6,0.1,1.1,0.1,1.7
				c1.2,2.5,2.4,5.1,3.6,7.6C137.9,222.6,129.6,210.5,130.1,193.3z"/>
			<path class="tour-logo-svg-styling-scope-5" d="M147.3,195.8c1-0.7,2-1.3,3-2c7.2,4.1,14.6,4.8,22.4,2c-4.4,3.1-8.8,6.2-13.2,9.3c-0.6,0-1.2,0-1.8,0
				c-1.8-1.3-3.6-2.6-5.4-3.9c-1.3-0.7-2.5-1.4-3.8-2C148.1,198,147.7,196.9,147.3,195.8z"/>
			<path class="tour-logo-svg-styling-scope-7" d="M157.8,205.1c0.6,0,1.2,0.1,1.8,0c8.5,8.4,15.8,0.9,23.6-1.6c14.9-4.8,21.7,3.2,25.3,16.2
				c-22.8,8.2-44.1,6-63.5-9.3c0,0-0.1-0.1-0.1-0.1c-1.3-2.4-2.6-4.9-3.9-7.3c-0.1-0.6-0.3-1.1-0.5-1.7c2.3-1.9,4.6-3.8,6.9-5.7
				c0.4,1.1,0.8,2.2,1.2,3.4c1.2,1.3,2.4,2.6,3.7,4C154.1,203.8,155.9,204.4,157.8,205.1z"/>
			<path class="tour-logo-svg-styling-scope-8" d="M140.4,201.5c0.2,0.5,0.4,1.1,0.5,1.7c1.3,2.4,2.6,4.9,3.9,7.3c0,0,0.1,0.1,0.1,0.1
				c1.2,3.8,2.3,7.5,3.5,11.3c-10.7-6.3-13.4-16.9-14.9-28C135.8,196.3,138.1,198.9,140.4,201.5z"/>
			<path class="tour-logo-svg-styling-scope-8" d="M157.8,205.1c-1.9-0.6-3.7-1.3-5.6-1.9c0-0.6,0.1-1.3,0.1-1.9C154.1,202.5,155.9,203.8,157.8,205.1z"/>
			<path class="tour-logo-svg-styling-scope-6" d="M152.3,201.2c0,0.6-0.1,1.3-0.1,1.9c-1.2-1.3-2.4-2.6-3.7-4C149.8,199.8,151.1,200.5,152.3,201.2z"/>
			<path class="tour-logo-svg-styling-scope-6" d="M144.8,210.4c-1.3-2.4-2.6-4.9-3.9-7.3C142.2,205.6,143.5,208,144.8,210.4z"/>
		</g>
	</g>
	<text transform="matrix(1 0 0 1 211.0239 79.0454)"><tspan x="0" y="0" class="tour-logo-svg-styling-scope-9 tour-logo-svg-styling-scope-10">Product</tspan></text>
	<text transform="matrix(1 0 0 1 237.749 153.2183)" class="tour-logo-svg-styling-scope-9 tour-logo-svg-styling-scope-10">Tour</text>
	<text transform="matrix(1 0 0 1 266.0322 227.6504)" class="tour-logo-svg-styling-scope-9 tour-logo-svg-styling-scope-10">JS</text>
</g>
</svg>
